<?xml version="1.0" standalone="no"?>
<!DOCTYPE svg PUBLIC "-//W3C//DTD SVG 20010904//EN"
 "http://www.w3.org/TR/2001/REC-SVG-20010904/DTD/svg10.dtd">
<svg version="1.0" xmlns="http://www.w3.org/2000/svg"
 width="700.000000pt" height="700.000000pt" viewBox="0 0 700.000000 700.000000"
 preserveAspectRatio="xMidYMid meet">
<metadata>
Created by potrace 1.14, written by Peter Selinger 2001-2017
</metadata>
<g transform="translate(0.000000,700.000000) scale(0.100000,-0.100000)"
fill="#000000" stroke="none">
<path d="M1341 6112 c-212 -42 -401 -227 -452 -442 -20 -83 -21 -4212 -1
-4320 40 -219 220 -407 442 -461 83 -20 4210 -21 4320 -1 171 31 323 145 412
308 9 17 27 65 39 105 l23 74 0 2130 -1 2130 -26 80 c-66 199 -235 354 -432
396 -90 19 -4228 20 -4324 1z m1114 -1756 c145 -51 249 -154 295 -293 16 -51
18 -86 16 -278 -1 -121 -5 -231 -9 -245 -30 -108 -125 -225 -226 -278 -87 -46
-127 -53 -315 -53 l-173 1 -1 -285 c0 -157 -3 -288 -5 -293 -4 -6 -403 -9
-427 -3 -3 0 -5 392 -5 871 0 770 1 870 15 872 8 2 188 3 400 2 337 -1 391 -3
435 -18z m1415 12 c176 -46 301 -166 345 -333 22 -87 22 -983 0 -1070 -30
-114 -102 -211 -205 -277 -92 -59 -117 -62 -551 -63 l-396 0 0 870 c0 478 4
872 8 875 9 6 776 4 799 -2z m1520 3 c3 0 5 -98 5 -216 l1 -215 -43 -1 c-24 0
-122 -1 -218 -1 -118 -1 -175 -5 -176 -12 -5 -80 1 -270 9 -275 6 -3 103 -6
216 -5 113 0 207 -2 207 -5 1 -3 2 -102 3 -218 l1 -213 -85 0 c-47 -1 -145 -1
-217 -1 l-133 0 -1 -47 c0 -26 -1 -157 -2 -292 l-2 -245 -217 0 -217 0 -1 871
c0 479 2 873 4 875 4 3 852 4 866 0z"/>
<path d="M2043 3791 l2 -145 143 0 c78 -1 142 1 143 4 1 7 1 252 0 271 -1 14
-20 16 -145 16 l-145 0 2 -146z"/>
<path d="M3500 3499 l0 -438 143 2 142 2 3 436 2 437 -145 -1 -145 0 0 -438z"/>
</g>
</svg>
